/* XPM */
static char *bateau11651162333[] = {
/* columns rows colors chars-per-pixel */
"64 64 241 2 ",
"   c None",
".  c #140708",
"X  c #160C12",
"o  c #1C1415",
"O  c #151519",
"+  c #1B141A",
"@  c #1D1A1D",
"#  c #151315",
"$  c #0C0D0F",
"%  c #270A08",
"&  c #2E150C",
"*  c #26130D",
"=  c #31150C",
"-  c #33180F",
";  c #2B1A15",
":  c #241B1A",
">  c #2C1C1A",
",  c #251716",
"<  c #331C14",
"1  c #3B1D14",
"2  c #331D1A",
"3  c #391F1B",
"4  c #331719",
"5  c #33080A",
"6  c #29211C",
"7  c #35221C",
"8  c #3C231D",
"9  c #392717",
"0  c #38280F",
"q  c #1C1D22",
"w  c #121A24",
"e  c #0F1722",
"r  c #221E22",
"t  c #2A1F21",
"y  c #361E20",
"u  c #19232B",
"i  c #1F2E3E",
"p  c #232124",
"a  c #2B2524",
"s  c #23242A",
"d  c #24292E",
"f  c #2B2A2E",
"g  c #2B262A",
"h  c #322524",
"j  c #3C2B24",
"k  c #312A2C",
"l  c #3B2C2C",
"z  c #3A2625",
"x  c #232A31",
"c  c #2D2E33",
"v  c #2D2F38",
"b  c #2D3035",
"n  c #2C343B",
"m  c #26333A",
"M  c #33343B",
"N  c #393A3E",
"B  c #35373A",
"V  c #312C31",
"C  c #451B0A",
"Z  c #551D1C",
"A  c #481D16",
"S  c #4A2E13",
"D  c #43251B",
"F  c #43291D",
"G  c #482718",
"H  c #5A2C1B",
"J  c #532A17",
"K  c #463A12",
"L  c #573618",
"P  c #4A300D",
"I  c #623D0C",
"U  c #633F14",
"Y  c #64321E",
"T  c #783617",
"R  c #75380F",
"E  c #4A1E21",
"W  c #432A21",
"Q  c #4B2D23",
"!  c #482525",
"~  c #552826",
"^  c #4B3022",
"/  c #493729",
"(  c #553123",
")  c #5A3324",
"_  c #573C2B",
"`  c #483834",
"'  c #573734",
"]  c #6C2624",
"[  c #612726",
"{  c #782925",
"}  c #6A3721",
"|  c #6C3922",
" . c #643725",
".. c #743D25",
"X. c #793B27",
"o. c #7B3D37",
"O. c #6C1F22",
"+. c #644114",
"@. c #69480F",
"#. c #736911",
"$. c #584433",
"%. c #56422F",
"&. c #7A4226",
"*. c #7C442A",
"=. c #764026",
"-. c #705436",
";. c #6E6126",
":. c #544B16",
">. c #2C3B43",
",. c #263846",
"<. c #333C44",
"1. c #3C3D42",
"2. c #353F49",
"3. c #403F45",
"4. c #34434B",
"5. c #3B414B",
"6. c #3C4449",
"7. c #3A4B54",
"8. c #374A53",
"9. c #3C515B",
"0. c #3D5056",
"q. c #345369",
"w. c #41434B",
"e. c #4A4A4B",
"r. c #444448",
"t. c #544C4B",
"y. c #544748",
"u. c #424A53",
"i. c #4A4C52",
"p. c #454D58",
"a. c #42545D",
"s. c #4D545A",
"d. c #525253",
"f. c #58575B",
"g. c #58514E",
"h. c #665C5D",
"j. c #6E4E44",
"k. c #6D6456",
"l. c #445761",
"z. c #465A63",
"x. c #495C65",
"c. c #4B5E68",
"v. c #5B5C62",
"b. c #555B63",
"n. c #4D616B",
"m. c #52646D",
"M. c #5A636A",
"N. c #556A75",
"B. c #596C76",
"V. c #576973",
"C. c #5D727D",
"Z. c #64656A",
"A. c #67676A",
"S. c #646C72",
"D. c #6F6D72",
"F. c #6A747B",
"G. c #69747A",
"H. c #727375",
"J. c #74767B",
"K. c #7A7A7D",
"L. c #883B10",
"P. c #82332D",
"I. c #9B3431",
"U. c #97312D",
"Y. c #A43531",
"T. c #AC3632",
"R. c #AB3933",
"E. c #B23933",
"W. c #B03735",
"Q. c #925113",
"!. c #B84E11",
"~. c #BC5514",
"^. c #A54A17",
"/. c #957C16",
"(. c #B06D16",
"). c #82462A",
"_. c #84492C",
"`. c #854729",
"'. c #83503C",
"]. c #8D7133",
"[. c #A8592E",
"{. c #C36B17",
"}. c #D27921",
"|. c #8A6747",
" X c #9C7756",
".X c #99665A",
"XX c #CB5A4E",
"oX c #CB6155",
"OX c #E37060",
"+X c #9A8D18",
"@X c #AA9418",
"#X c #B39B0F",
"$X c #B9A41A",
"%X c #A59528",
"&X c #F49909",
"*X c #EC8F06",
"=X c #CCAB18",
"-X c #FCAB0B",
";X c #FBA907",
":X c #FFB30B",
">X c #FFB90D",
",X c #E9B318",
"<X c #C3A626",
"1X c #C7AC29",
"2X c #C5A927",
"3X c #DABB2B",
"4X c #D7B926",
"5X c #D1B52C",
"6X c #E19C23",
"7X c #D9C40E",
"8X c #FFC915",
"9X c #9C9853",
"0X c #FFB949",
"qX c #CD925E",
"wX c #DBCC71",
"eX c #D3C557",
"rX c #5F7580",
"tX c #617781",
"yX c #637983",
"uX c #6E7A83",
"iX c #7E7F81",
"pX c #837F86",
"aX c #7A8287",
"sX c #66808A",
"dX c #868588",
"fX c #838C94",
"gX c #8A939B",
"hX c #939496",
"jX c #97978D",
"kX c #8E9AA9",
"lX c #8C98A7",
"zX c #939CA7",
"xX c #98A1AA",
"cX c #ACB0B3",
"vX c #A19FA6",
"bX c #B5BEC3",
"nX c #D8DADB",
"mX c #CACECF",
"MX c #FDFEFF",
"NX c #F3F4F5",
"BX c #E9EBEC",
/* pixels */
"                                                                                                                                ",
"                                                                                                                                ",
"                                                Z.Z.    r.d.                                                                    ",
"                                                Z.Q Z.j.{ o.                              k.                                    ",
"                                                  Q 5 E.OXXX{ y.e.                      ` ].H.                                  ",
"                                                  ^ Z { ! G U.{ O.[                     $.'.dX                                  ",
"                                                  ^ . h.    ' U.Y.U.!             K.Z.f.r j M Z.D.N N                           ",
"                                                  ^           4 5 % '             z R (.[.Q.^.L.- N   N                         ",
"                                                  ^                               k R Q.Q.T L.T & N     1.                      ",
"                                                  ^                                 O / -.Q Q , d.        N                     ",
"                                                  ^                                 + _.qX&.`.= dX          1.                  ",
"                                                f.j 7 w.                              / -.Q G y.              N                 ",
"                                            7.v 6 j.'.P.> n 4.#                         p j e.                  1.              ",
"                                          <.rXi.P.oXXXXX` n.a.                          h F d.                    N             ",
"                                        u.B.<.] W.T.{ l 8.m                     p.4.5.5.p.0.7.5.2.4.5.5.5.4.5.7.5.7.O N         ",
"                                      B m.l.y T.W.W.E ,.7.s                 f.m yXyXC.tXG.tXyXC.G.tXtXtXtXyXyXtXG.z.f.          ",
"                                      r.7.l.h Y.T.E.Z <.7.s                 0.yXyXm.m.z.z.z.l.9.9.9.x.x.m.z.z.x.>.b             ",
"                                      N a.l.y T.W.E.Z ,.x.n             v.a.m.yXMXC.N.n.z.z.8.9.MXz.l.z.B.x.n.4.1.              ",
"                                        <.a.V P.T.T.O.M 9.8.x           <.yXa.MXMXV.a.a.q.9.9.9.MXMXq.s.x.n.7.f                 ",
"                                          s u X Z H [ 4 w x u O       H.a.N.x.8.4.MX9.9.9.9.9.MX>.0.n.n.x.9.n                   ",
"                                          D.Z.A.w.6 6 6.A.A.A.Z.D.    M G.z.z.x.a.z.MXMXMXMXMXx.l.m.n.x.x.n N                   ",
"                                                aXQ j D.              7.B.x.x.z.z.NXMXMXMXMXMXMXn.B.m.z.q.n                     ",
"                                  K.s c <.<.@ ' ' ' ' h d 1.b # H.  M V.z.x.z.z.MXNX4.x.MXm hXNXMXm.x.x.>.c                     ",
"                                K.hXZ.V.yXn.~ XXoXoXoX' z.sXn.Z.    d n.n.z.x.a.MXMXaXgXMXsXbXNXMXm.x.x.>.k                     ",
"                              H.d.D.x.V.4.z Y.T.T.Y.E 4.x.<.i.      d N.B.z.z.z.MXMXMXMXMXMXMXMXMXV.z.n.n f                     ",
"                            dXe.aXp.V.7.! Y.T.T.Y.~ 5.c.7.u         x c.z.x.z.a.aXMXNXgXmXzXMXMXn.a.z.z.4.b                     ",
"                            d.dX>.C.l.g U.R.T.E.] >.V.n.8.s         c z.x.x.B.F.MXx.NXMXMXMXMX4.MXB.m.z.z.n N                   ",
"                          d.  K.x n.z.g I.T.T.W.] n C.N.8.s         s n.x.a.MXMXx.x.BXMXMXMXMX>.4.MXMX9.n.4.N                   ",
"                        d.    K.x n.x.g I.T.T.E.] >.n.c.7.s         1.a.x.x.a.MXn.x.MXM.gXMXMX7.x.MX7.x.x.x.m                   ",
"                      d.      H.u tXm.s I.T.T.E.] n n.x.7.s           x n.x.x.x.x.x.x.x.x.x.x.x.x.x.z.x.n.x.m                   ",
"                    d.        hXM x.c.v P.R.W.W.{ M z.c.x.4.6.        B a.B.B.z.x.x.x.x.x.x.x.n.z.x.x.n.C.n.l.n                 ",
"                  d.            hXm z.l.h I.T.R.W.] <.x.c.c.>.B         n a.l.x.z.x.x.x.x.x.z.x.x.x.z.x.x.z.n.l.x O             ",
"                Z.                K.x >.M ] { { { { z x >.2.>.x M         b <.>.>.>.>.>.2.2.4.>.n >.>.>.>.>.<.>.n n u           ",
"              d.                    Z.s f k V V t : , p c q f f @ f.        J.q f c g s @ @ p k c f c f b V c f c b g s         ",
"            d.                                    / ^     e.              hXjX          / _                                     ",
"          d.                                      $._       e.          K.Z.            ` -.      N d.f.e.i.i.e.e.i.e.i.e.r.e.  ",
"        d.        1.s f g g c c f f f f f f f f g r r s s     e.      a : : k g h h h q ` |.r k # M.nXnXxXkXkXlXkXkXkXzXzXlXM   ",
"      d.          N fXnXmXlXlXlXkXkXlXkXlXlXlXlXkXxXkXxX1.      e.    C }.6X{.~.~.~.~.T _ |.A L.J u N N V v v c v v v V v d f   ",
"    d.            ` 3.f.d.w.w.w.w.1.w.5.w.w.w.w.w.2.w.u.p         e.  > L L J J J G G 2 / |.+ D , 5.v dXv p.1.pXb n J.A.1.f     ",
"    v.                  c 2.D.D.M M hXw.i.f vXM 2./ ! 2.>.          e.: L D F 8 F D O # @ > + + O q q V r p r V q @ f d @ s     ",
"  e.r d.t.y.y.y.t.g.f.e.p g 1.1.g g r.k b g e.h k a 6 f a             M W ( > > 2 ) > Q.(.^.Q.1 ;.1X<X<X2X<X<X<X2X<X<X<X<X%.    ",
"    G {.6X(.!.~.!.!.T 0 4XwXnXnXwX4X4X3X4X3X4X3X3X4X3X3X3X-.            G F _ |.h  ., D G 1 1 X /.8X;X;X-X;X;X-X-X-X;X-X-XL     ",
"      C C C C C C C & 0 ;X>X0X0X0X:X:X-X;X:X:X-X:X:X:X:X:X$Xg.          D Q j.qX/  .D a  X Xg ;.,X*X@.G G S P S S S S S S ,     ",
"                      a P +.I I I I I U +.U U +.L I I Q.*X:X@Xk.v.h.h.N 6 6 j %.: > > , $./ ;.,X&X`.1 2 2 3 3 3 1 7 3 3 #       ",
"                          + 3 7 3 3 8 8 7 8 3 3 3 3 y 7 Q.&X;X<X$X<X$X<X1X1X2X<X1X1X1X1X2X<X,X*XQ.6 } &.X.=.=.=.&.Y  .*.7       ",
"                          X 2 ; > > > > ; > , , , , > + 0 (.&X>X>X>X>X>X>X>X:X>X>X>X>X>X>X>X;XQ.@ O 7 9 < 2 2 7 z 2 > h o       ",
"                            ; ) ( ( ( ) J f jX$X#.> ) ) G P +.U U U U U U U U U U U U U +.+.L 8 W ) ^ 6 zXaXaXv., ) L ( :       ",
"                            * &.....).)...9 eX+X@XW ).`.T G < 2 3 7 3 2 2 2 3 2 2 2 y y h 3 2 ( &.).( hXH.i.i.M.v.) `.=.>       ",
"                              D Y &.*.| | 9 7X#X+X8 _.*.*...} = ; ; 8 ..=.| | ..| | - ; ; D | &.).*.z cXx ,.w i.uX8 _.J         ",
"                              . 7 7 9 6 7 O #.,X0 : 8 9 7 3 W cXfXfXA.< 7 7 7 7 7 W cXgXfXZ.< 8 7 7 u aXb q.,.p.uX, 7 #         ",
"                                o D ^ @ $ W K $X: * $ a Q a dXaXf.M.S.w.6 ^ ^ Q p dXdXf.f.S.6.> ^ ^ 6 gXs q e 6.S.> Q .         ",
"                                % &.&.z K.l K $XX h.i.D _.l cXs m w i.uXG &.X.&.` cXu i e f.F.! &.X.) v.S.S.M.f.N H H t.        ",
"                                g.C =._ H.].K #XK 9Xy.H X.j fXc q.,.a.F.D =...&.j fXs q.,.b.S.G ....&.D f.M.b.N G ..%           ",
"                                  ` J *.K +X@X=X+X@.G &.*.j gXr u w u.S.F ).).&.l lXw u w i.V.G `.).).| < < & D ..A e.          ",
"                                    l 0 9 # +X,X:.X 8 W W @ p.J.J.F.b.x : W W 8 @ s.F.J.G.f.m > W 8 W 8 < 2 2 8 - y.            ",
"                                      @ ; F J +.6 j 8 W W F 7 S.F.G.r.2 ^ F F F F 7 S.G.S.3.3 W F W 7 F W Q W o b               ",
"                                        1 .. .D ......_.).).Y & * * 1 X._.).=.*.).Y & * * 3 =._._.*.T ).)... .7                 ",
"                                          * - | | | | } | | } H H H H } | | H Y | | H H H H | | | | | Y  .* 2                   ",
"                                              & & = & & & & & - = - - - & - - - - & & - - & & & & & & & <                       ",
"                                                                                                                                ",
"                                                                                                                                ",
"                                                                                                                                ",
"                                                                                                                                ",
"                                                                                                                                "
};
