/* XPM */
static char *result[] = {
/* columns rows colors chars-per-pixel */
"17 23 18 1 ",
"  c gray11",
". c #2F303C",
"X c #493C2B",
"o c #524C37",
"O c #5F513C",
"+ c #68422B",
"@ c #775331",
"# c #992E00",
"$ c #9E6F4A",
"% c #B57F55",
"& c #D4B31F",
"* c #EEB62F",
"= c #D19262",
"- c #F7E26B",
"; c #F7B080",
": c #E4DDAF",
"> c white",
", c None",
/* pixels */
",,,,,,,,,,,,,,,,,",
",,,,, ----- ,,,,,",
",,,,, *   * ,,,,,",
",,   * ::: *   ,,",
", ---   :   --- ,",
",*     : :     *,",
",*   :  :  :   *,",
",               ,",
",, ++;;+++;;+  ,,",
",, +;;;;;;   + ,,",
",,        ;;;+ ,,",
",, +   ;;;; >+ ,,",
",, =   ;%;; >= ,,",
",,, ;;;;$;;;; ,,,",
",,, ;======== ,,,",
",,,  ===;=== ,,,,",
",, ;; #&o&## ,,,,",
",, ;= #-o-##  ,,,",
",,,  ##&@&## = ,,",
",,,, &&ooo&& = ,,",
",,,, .......  ,,,",
",,,,,   OOO ,,,,,",
",,,,,,,, X ,,,,,,"
};
