/* XPM */
static char *result[] = {
/* columns rows colors chars-per-pixel */
"16 16 9 1 ",
"  c #2B1A3F",
". c #1C382B",
"X c #E51639",
"o c #911D51",
"O c #FF7759",
"+ c #3B8235",
"@ c #82BC3C",
"# c #FFDCB2",
"$ c None",
/* pixels */
"$$$$$$$$$$$$$$$$",
"$$$$$$$$$$$$$$$$",
"$$$$$$$$$$$$$$$$",
"$$$$$$$..$..$$$$",
"$$$$$$.+@.+@.$$$",
"$$$$$$.@.++.$$$$",
"$$$$$ .+. .$$$$$",
"$$$$ XO.OX $$$$$",
"$$$ oO#O##O $$$$",
"$$$ XOXO##X $$$$",
"$$$ oXOXOXX $$$$",
"$$$ ooXXXXo $$$$",
"$$$$ ooooo $$$$$",
"$$$$$     $$$$$$",
"$$$$$$$$$$$$$$$$",
"$$$$$$$$$$$$$$$$"
};
