/* XPM */
static char *result[] = {
/* columns rows colors chars-per-pixel */
"16 16 9 1 ",
"  c #381E1E",
". c #303834",
"X c #44664C",
"o c #8E4D36",
"O c #B2762C",
"+ c #4B8750",
"@ c #7CB247",
"# c #CBD888",
"$ c None",
/* pixels */
"$$$$$$$$$$$$$$$$",
"$$$$$$$$$$$$$$$$",
"$$$$$$   $$$$$$$",
"$$$$$ oOO $$$$$$",
"$$$$ o  oo $$$$$",
"$$$$  $$  +.$$$$",
"$$$$$$$$.+@+.$$$",
"$$$$$$$.+@#@.$$$",
"$$$$$$$.++@+.$$$",
"$$$$$..+@##@.$$$",
"$$$$.X+@+@#+.$$$",
"$$$$.+@#@+X.$$$$",
"$$$$.X+XXX.$$$$$",
"$$$$$.....$$$$$$",
"$$$$$$$$$$$$$$$$",
"$$$$$$$$$$$$$$$$"
};
