/* XPM */
static char *result[] = {
/* columns rows colors chars-per-pixel */
"16 16 6 1 ",
"  c #443D56",
". c #505D82",
"X c #548EAD",
"o c #65C4CE",
"O c #DCF4E8",
"+ c None",
/* pixels */
"++++++++++++++++",
"++++++++++++++++",
"++++++++++++++++",
"++++++   +  ++++",
"+++++ Xoo oO +++",
"++++ XooOo X +++",
"+++  XXoo   ++++",
"++ o .X. Xoo +++",
"++ XO . XoOOo ++",
"++ .Xo  XooOo ++",
"+++   . .XooX ++",
"+++++ X. .XX +++",
"++++++  +   ++++",
"++++++++++++++++",
"++++++++++++++++",
"++++++++++++++++"
};
