/* XPM */
static char *result[] = {
/* columns rows colors chars-per-pixel */
"16 16 9 1 ",
"  c #553159",
". c #3E4949",
"X c #B7599D",
"o c #FF5988",
"O c #7FA88E",
"+ c #B0D88F",
"@ c #DDFF8E",
"# c #FAFFD1",
"$ c None",
/* pixels */
"$$$$$$$$$$$$$$$$",
"$$$$$$$$$$$$$$$$",
"$$$$$$$$$$$$$$$$",
"$$$$$$...$$$$$$$",
"$$$$$.+@. $$$$$$",
"$$$$.+@#.o $$$$$",
"$$$$.O+@.Xo $$$$",
"$$$$...+@.X $$$$",
"$$$$$ X.@@...$$$",
"$$$$$ X.@+#+.$$$",
"$$$$...@+#+O.$$$",
"$$$$.OO+++O.$$$$",
"$$$$$.OOOO.$$$$$",
"$$$$$$....$$$$$$",
"$$$$$$$$$$$$$$$$",
"$$$$$$$$$$$$$$$$"
};
