/* XPM */
static char *result[] = {
/* columns rows colors chars-per-pixel */
"16 16 9 1 ",
"  c #27293F",
". c #2C425B",
"X c #5B4740",
"o c #C18757",
"O c #E2AA66",
"+ c #F7CC56",
"@ c #376396",
"# c #F7F0D7",
"$ c None",
/* pixels */
"$$$$$$$$$$$$$$$$",
"$$$$$$$$$$$$$$$$",
"$$$$$$$$$$$$$$$$",
"$$$$$$$$$$$$$$$$",
"$$$$$$$  $$$$$$$",
"$$$$$$ .@ $$$$$$",
"$$$$$ .@#@ $$$$$",
"$$$$$ ..@. $$$$$",
"$$$$Xo    oX$$$$",
"$$$$XoO++#+X$$$$",
"$$$$Xo++O+OX$$$$",
"$$$$$XoO+oX$$$$$",
"$$$$$$XXXX$$$$$$",
"$$$$$$$$$$$$$$$$",
"$$$$$$$$$$$$$$$$",
"$$$$$$$$$$$$$$$$"
};
