/* XPM */
static char *result[] = {
/* columns rows colors chars-per-pixel */
"16 16 9 1 ",
"  c #30233F",
". c #3C634E",
"X c #59A85F",
"o c #A3DB6B",
"O c #8E3986",
"+ c #E2418A",
"@ c #E5809B",
"# c #FFDCB2",
"$ c None",
/* pixels */
"$$$$$$$$$$$$$$$$",
"$$$$$$$$$$$$$$$$",
"$$$$$$$$$$$$$$$$",
"$$$$$$$$$$$$$$$$",
"$$$$$$$   $$$$$$",
"$$$$$X +@@ $$$$$",
"$$$$$ O+@#oX$$$$",
"$$$$$ +@#@X.$$$$",
"$$$$ O@X@+ $$$$$",
"$$$$Xo+.X@O $$$$",
"$$$$.X+@#+oX$$$$",
"$$$$ OO++OX.$$$$",
"$$$$$ XoOO $$$$$",
"$$$$$$.X  $$$$$$",
"$$$$$$$$$$$$$$$$",
"$$$$$$$$$$$$$$$$"
};
