/* XPM */
static char *result[] = {
/* columns rows colors chars-per-pixel */
"16 16 6 1 ",
"  c #543B3B",
". c #B57B6E",
"X c #DBB878",
"o c #FFF268",
"O c #FFFBE0",
"+ c None",
/* pixels */
"++++++++++++++++",
"++++++++++++++++",
"++++++++++++++++",
"++++++    ++++++",
"+++++ .ooX +++++",
"++++ Xo.oOo ++++",
"++++ o. oo.o +++",
"+++ .XoOooOX +++",
"+++ XoXo.Xo  +++",
"+++ . ooXoX. +++",
"++++ X..oX  ++++",
"+++++ .XX. +++++",
"++++++    ++++++",
"++++++++++++++++",
"++++++++++++++++",
"++++++++++++++++"
};
