/* XPM */
static char *result[] = {
/* columns rows colors chars-per-pixel */
"16 16 9 1 ",
"  c #161619",
". c #2D2C38",
"X c #3C634E",
"o c #4A415B",
"O c #59A85F",
"+ c #A3DB6B",
"@ c #7A578E",
"# c #F2CBD9",
"$ c None",
/* pixels */
"$$$$$$$$$$$$$$$$",
"$$$$$$$$$$$$$$$$",
"$$$$$$$$$$$$$$$$",
"$$$$$$$$$$$$$$$$",
"$$$$$$$    $$$$$",
"$$$$$$ .ooo $$$$",
"$$$$X .o@##o $$$",
"$$$XO .#@##o $$$",
"$$$$X .o@@@o $$$",
"$$$XO ..o.o. $$$",
"$$$X+O ..o. $$$$",
"$$$X+X+    $$$$$",
"$$$XOXXOX$$$$$$$",
"$$$$X$$X$$$$$$$$",
"$$$$$$$$$$$$$$$$",
"$$$$$$$$$$$$$$$$"
};
