/* XPM */
static char *ship_left11651195490[] = {
/* columns rows colors chars-per-pixel */
"64 64 13 1 ",
"  c None",
". c #370F05",
"X c #593B33",
"o c #78523D",
"O c #555555",
"+ c #545959",
"@ c #B40410",
"# c #E30313",
"$ c #A17854",
"% c #EBB385",
"& c #9EB9CE",
"* c #CEDEEA",
"= c white",
/* pixels */
"                                                                ",
"                                                                ",
"                              ..                                ",
"                              ..                                ",
"                            ..%%@@##@@                          ",
"                            ..%%@@##@@                          ",
"                          ++++$$@@##  ##                        ",
"                          ++++$$@@##  ##                        ",
"                        ++**==$$..                              ",
"                        ++**==$$..                              ",
"                      ++**&&++$$..      ..                      ",
"                      ++**&&++$$..      ..                      ",
"                      ++**==++$$..    ..%%@@##@@                ",
"                      ++**==++$$..    ..%%@@##@@                ",
"                    ++**====**++..    ++$$@@##  ##              ",
"                    ++**====**++..    ++$$@@##  ##              ",
"                  ++++**======**++  ++**$$..            ....    ",
"                  ++++**======**++  ++**$$..            ....    ",
"                ++==++**======****++**++$$..      ......%%$$    ",
"                ++==++**======****++**++$$..      ......%%$$    ",
"              ++====++**&&==****++++**==++++    ..%%$$%%**OO    ",
"              ++====++**&&==****++++**==++++    ..%%$$%%**OO    ",
"            ++======++**&&==**++..++======**++  ..$$&&**==OO    ",
"            ++======++**&&==**++..++======**++  ..$$&&**==OO    ",
"          ++====&&****++**&&**++..++==&&**++    ..$$======OO    ",
"          ++====&&****++**&&**++..++==&&**++    ..$$======OO    ",
"        ++====&&**&&++**++&&==**++++==&&****++  ..$$====**OO    ",
"        ++====&&**&&++**++&&==**++++==&&****++  ..$$====**OO    ",
"      ++==**&&++++++**==**++++++++++++**&&**++....$$==&&**OO    ",
"      ++==**&&++++++**==**++++++++++++**&&**++....$$==&&**OO    ",
"  ..++==**++++  ..++**====********++**++++++..$$..$$**OOOO      ",
"  ..++==**++++  ..++**====********++**++++++..$$..$$**OOOO      ",
"..%%$$....    ..$$++**==&&====**++++****====++....$$..XX..      ",
"..%%$$....    ..$$++**==&&====**++++****====++....$$..XX..      ",
"  ....%%$$....$$....++**&&==**++XX++**====++....$$XXXXXX..      ",
"  ....%%$$....$$....++**&&==**++XX++**====++....$$XXXXXX..      ",
"      ....%%$$%%......++**&&**++..++**&&==**++..$$oooooo..      ",
"      ....%%$$%%......++**&&**++..++**&&==**++..$$oooooo..      ",
"          ....oo%%XX....++&&==**++..++**&&==++oo%%%%%%%%..      ",
"          ....oo%%XX....++&&==**++..++**&&==++oo%%%%%%%%..      ",
"              ..oo%%%%%%..++++++......++++++..%%oooooooo..      ",
"              ..oo%%%%%%..++++++......++++++..%%oooooooo..      ",
"              ..XXoooooo%%XX................%%oo..oo..XX..      ",
"              ..XXoooooo%%XX................%%oo..oo..XX..      ",
"                ..XX$$$$oo%%%%%%%%%%%%%%%%%%oo$$$$$$ooXX..      ",
"                ..XX$$$$oo%%%%%%%%%%%%%%%%%%oo$$$$$$ooXX..      ",
"                ..ooXXXX$$oo..oo..oo..oo..oo$$ooooXXXX..        ",
"                ..ooXXXX$$oo..oo..oo..oo..oo$$ooooXXXX..        ",
"                  ..oo$$oo%%$$%%$$%%$$%%$$%%$$$$ooXX..          ",
"                  ..oo$$oo%%$$%%$$%%$$%%$$%%$$$$ooXX..          ",
"                    ..ooooooooooooooooooooooooXXXX..XX..        ",
"                    ..ooooooooooooooooooooooooXXXX..XX..        ",
"                      ..XXXXXXXXXXXXXXXXXXXXXXXXXX..oo..        ",
"                      ..XXXXXXXXXXXXXXXXXXXXXXXXXX..oo..        ",
"                                                                ",
"                                                                ",
"                                                                ",
"                                                                ",
"                                                                ",
"                                                                ",
"                                                                ",
"                                                                ",
"                                                                ",
"                                                                "
};
