/* XPM */
static char *ship_up21651195491[] = {
/* columns rows colors chars-per-pixel */
"64 64 13 1 ",
"  c None",
". c #370F05",
"X c #593B33",
"o c #78523D",
"O c #555555",
"+ c #545959",
"@ c #B40410",
"# c #E30313",
"$ c #A17854",
"% c #EBB385",
"& c #9EB9CE",
"* c #CEDEEA",
"= c white",
/* pixels */
"                                                                ",
"                                                                ",
"                              XX                                ",
"                              XX                                ",
"                            XX%%XX                              ",
"                            XX%%XX                              ",
"                    ..%%$$$$XX##XX$$$$$$..                      ",
"                    ..%%$$$$XX##XX$$$$$$..                      ",
"                    ++&&&&&&XX##@@&&&&&&++                      ",
"                    ++&&&&&&XX##@@&&&&&&++                      ",
"                    ++&&&&&&XX$$@@##&&&&++                      ",
"                    ++&&&&&&XX$$@@##&&&&++                      ",
"                    ++******XX$$XX**@@**++                      ",
"                    ++******XX$$XX**@@**++                      ",
"                  ..%%$$$$$$XX$$XX$$$$$$$$..                    ",
"                  ..%%$$$$$$XX$$XX$$$$$$$$..                    ",
"                  ++&&&&&&&&XXXXXX&&&&&&&&++                    ",
"                  ++&&&&&&&&XXXXXX&&&&&&&&++                    ",
"                  ++++++++++XX%%XX++++++++++                    ",
"                  ++++++++++XX%%XX++++++++++                    ",
"                ..%%$$$$$$$$XX##XX$$$$$$$$$$..                  ",
"                ..%%$$$$$$$$XX##XX$$$$$$$$$$..                  ",
"                ++&&&&&&&&&&XX##@@&&&&&&&&&&++                  ",
"                ++&&&&&&&&&&XX##@@&&&&&&&&&&++                  ",
"                ++**********XX$$@@##&&******++                  ",
"                ++**********XX$$@@##&&******++                  ",
"                ++====&&====XX$$XX==@@&&====++                  ",
"                ++====&&====XX$$XX==@@&&====++                  ",
"                ..%%$$$$$$$$oo..XX$$$$$$$$$$..                  ",
"                ..%%$$$$$$$$oo..XX$$$$$$$$$$..                  ",
"                ++&&&&&&&&&&..%%....&&&&&&&&++                  ",
"                ++&&&&&&&&&&..%%....&&&&&&&&++                  ",
"                ++****&&****..$$$$%%....****++                  ",
"                ++****&&****..$$$$%%....****++                  ",
"                ++====&&====..$$&&&&$$%%..==++                  ",
"                ++====&&====..$$&&&&$$%%..==++                  ",
"                ++............$$&&******OO..++                  ",
"                ++............$$&&******OO..++                  ",
"                ++..$$XXXXXX..$$**====**OO..++                  ",
"                ++..$$XXXXXX..$$**====**OO..++                  ",
"                  ..%%ooXXXX..$$..OO****OO..                    ",
"                  ..%%ooXXXX..$$..OO****OO..                    ",
"                  ..%%ooooooooXXXXXXOOOOOO..                    ",
"                  ..%%ooooooooXXXXXXOOOOOO..                    ",
"                  ..%%ooooooooooXXXXXXXX%%..                    ",
"                  ..%%ooooooooooXXXXXXXX%%..                    ",
"                  ..$$%%%%%%%%%%%%%%%%%%$$..                    ",
"                  ..$$%%%%%%%%%%%%%%%%%%$$..                    ",
"                  ..$$oooooooooooooooooooo..                    ",
"                  ..$$oooooooooooooooooooo..                    ",
"                  ..oo..oo..oo..oo..oo..XX..                    ",
"                  ..oo..oo..oo..oo..oo..XX..                    ",
"                    ..oo$$$$$$$$$$$$$$oo..                      ",
"                    ..oo$$$$$$$$$$$$$$oo..                      ",
"                    ..XXooooooooooooooXX..                      ",
"                    ..XXooooooooooooooXX..                      ",
"                      ..................                        ",
"                      ..................                        ",
"                        ..XXoo%%XXXX..                          ",
"                        ..XXoo%%XXXX..                          ",
"                            ..$$..                              ",
"                            ..$$..                              ",
"                                                                ",
"                                                                "
};
