/* XPM */
static char *ship_right11651195490[] = {
/* columns rows colors chars-per-pixel */
"64 64 13 1 ",
"  c None",
". c #370F05",
"X c #593B33",
"o c #78523D",
"O c #555555",
"+ c #545959",
"@ c #B40410",
"# c #E30313",
"$ c #A17854",
"% c #EBB385",
"& c #9EB9CE",
"* c #CEDEEA",
"= c white",
/* pixels */
"                                                                ",
"                                                                ",
"                                 ..                             ",
"                                 ..                             ",
"                           @@##@@%%..                           ",
"                           @@##@@%%..                           ",
"                         ##  ##@@$$++++                         ",
"                         ##  ##@@$$++++                         ",
"                               ..$$==**++                       ",
"                               ..$$==**++                       ",
"                       ..      ..$$++&&**++                     ",
"                       ..      ..$$++&&**++                     ",
"                 @@##@@%%..    ..$$++==**++                     ",
"                 @@##@@%%..    ..$$++==**++                     ",
"               ##  ##@@$$++    ..++**====**++                   ",
"               ##  ##@@$$++    ..++**====**++                   ",
"     ....            ..$$**++  ++**======**++++                 ",
"     ....            ..$$**++  ++**======**++++                 ",
"     $$%%......      ..$$++**++****======**++==++               ",
"     $$%%......      ..$$++**++****======**++==++               ",
"     OO**%%$$%%..    ++++==**++++****==&&**++====++             ",
"     OO**%%$$%%..    ++++==**++++****==&&**++====++             ",
"     OO==**&&$$..  ++**======++..++**==&&**++======++           ",
"     OO==**&&$$..  ++**======++..++**==&&**++======++           ",
"     OO======$$..    ++**&&==++..++**&&**++****&&====++         ",
"     OO======$$..    ++**&&==++..++**&&**++****&&====++         ",
"     OO**====$$..  ++****&&==++++**==&&++**++&&**&&====++       ",
"     OO**====$$..  ++****&&==++++**==&&++**++&&**&&====++       ",
"     OO**&&==$$....++**&&**++++++++++++**==**++++++&&**==++     ",
"     OO**&&==$$....++**&&**++++++++++++**==**++++++&&**==++     ",
"       OOOO**$$..$$..++++++**++********====**++..  ++++**==++.. ",
"       OOOO**$$..$$..++++++**++********====**++..  ++++**==++.. ",
"       ..XX..$$....++====****++++**====&&==**++$$..    ....$$%%.",
"       ..XX..$$....++====****++++**====&&==**++$$..    ....$$%%.",
"       ..XXXXXX$$....++====**++XX++**==&&**++....$$....$$%%.... ",
"       ..XXXXXX$$....++====**++XX++**==&&**++....$$....$$%%.... ",
"       ..oooooo$$..++**==&&**++..++**&&**++......%%$$%%....     ",
"       ..oooooo$$..++**==&&**++..++**&&**++......%%$$%%....     ",
"       ..%%%%%%%%oo++==&&**++..++**==&&++....XX%%oo....         ",
"       ..%%%%%%%%oo++==&&**++..++**==&&++....XX%%oo....         ",
"       ..oooooooo%%..++++++......++++++..%%%%%%oo..             ",
"       ..oooooooo%%..++++++......++++++..%%%%%%oo..             ",
"       ..XX..oo..oo%%................XX%%ooooooXX..             ",
"       ..XX..oo..oo%%................XX%%ooooooXX..             ",
"       ..XXoo$$$$$$oo%%%%%%%%%%%%%%%%%%oo$$$$XX..               ",
"       ..XXoo$$$$$$oo%%%%%%%%%%%%%%%%%%oo$$$$XX..               ",
"         ..XXXXoooo$$oo..oo..oo..oo..oo$$XXXXoo..               ",
"         ..XXXXoooo$$oo..oo..oo..oo..oo$$XXXXoo..               ",
"           ..XXoo$$$$%%$$%%$$%%$$%%$$%%oo$$oo..                 ",
"           ..XXoo$$$$%%$$%%$$%%$$%%$$%%oo$$oo..                 ",
"         ..XX..XXXXoooooooooooooooooooooooo..                   ",
"         ..XX..XXXXoooooooooooooooooooooooo..                   ",
"         ..oo..XXXXXXXXXXXXXXXXXXXXXXXXXX..                     ",
"         ..oo..XXXXXXXXXXXXXXXXXXXXXXXXXX..                     ",
"                                                                ",
"                                                                ",
"                                                                ",
"                                                                ",
"                                                                ",
"                                                                ",
"                                                                ",
"                                                                ",
"                                                                ",
"                                                                "
};
