/* XPM */
static char *ship_down11651195490[] = {
/* columns rows colors chars-per-pixel */
"64 64 12 1 ",
"  c None",
". c #370F05",
"X c #593B33",
"o c #78523D",
"O c #545959",
"+ c #B40410",
"@ c #E30313",
"# c #A17854",
"$ c #EBB385",
"% c #9EB9CE",
"& c #CEDEEA",
"* c white",
/* pixels */
"                              ..                                ",
"                              ..                                ",
"                            ..$$++@@++                          ",
"                            ..$$++@@++                          ",
"                    ..$$####oo##########..                      ",
"                    ..$$####oo##########..                      ",
"                    OO%%%%%%%%%%%%%%%%%%OO                      ",
"                    OO%%%%%%%%%%%%%%%%%%OO                      ",
"                    OO%%%%%%%%%%%%%%%%%%OO                      ",
"                    OO%%%%%%%%%%%%%%%%%%OO                      ",
"                    OO&&&&&&%%%%%%&&&&&&OO                      ",
"                    OO&&&&&&%%%%%%&&&&&&OO                      ",
"                  ..$$########..##########..                    ",
"                  ..$$########..##########..                    ",
"                  OO%%%%%%%%..$$++@@%%@@%%OO                    ",
"                  OO%%%%%%%%..$$++@@%%@@%%OO                    ",
"                  OOOOOOOOOO..##++@@++OOOOOO                    ",
"                  OOOOOOOOOO..##++@@++OOOOOO                    ",
"                ..$$##########oooo##########..                  ",
"                ..$$##########oooo##########..                  ",
"                OO%%%%%%%%%%%%%%%%%%%%%%%%%%OO                  ",
"                OO%%%%%%%%%%%%%%%%%%%%%%%%%%OO                  ",
"                OO%%&&&&%%&&&&%%&&&&%%&&&&%%OO                  ",
"                OO%%&&&&%%&&&&%%&&&&%%&&&&%%OO                  ",
"                OO&&**%%******&&******%%**&&OO                  ",
"                OO&&**%%******&&******%%**&&OO                  ",
"                OO&&**%%******&&******%%**&&OO                  ",
"                OO&&**%%******&&******%%**&&OO                  ",
"                  OO**%%******%%******%%**OO                    ",
"                  OO**%%******%%******%%**OO                    ",
"                ..$$########oo$$oo##########..                  ",
"                ..$$########oo$$oo##########..                  ",
"                OO%%%%%%%%%%%%%%%%%%%%%%%%%%OO                  ",
"                OO%%%%%%%%%%%%%%%%%%%%%%%%%%OO                  ",
"                OO%%&&&&%%&&&&%%&&&&%%&&&&%%OO                  ",
"                OO%%&&&&%%&&&&%%&&&&%%&&&&%%OO                  ",
"                OO%%**%%******%%******%%**%%OO                  ",
"                OO%%**%%******%%******%%**%%OO                  ",
"                OO&&**%%******&&******%%**&&OO                  ",
"                OO&&**%%******&&******%%**&&OO                  ",
"                  OO**%%******&&******%%&&OO                    ",
"                  OO**%%******&&******%%&&OO                    ",
"                  ..OOOO%%&&&&%%&&&&%%OOOO..                    ",
"                  ..OOOO%%&&&&%%&&&&%%OOOO..                    ",
"                  ..$$XXOOOOOOOOOOOOOOXX##..                    ",
"                  ..$$XXOOOOOOOOOOOOOOXX##..                    ",
"                  ..$$XXXX....XXXXooXXXX##..                    ",
"                  ..$$XXXX....XXXXooXXXX##..                    ",
"                  ..##$$$$XXXXXXXXXX$$##XX..                    ",
"                  ..##$$$$XXXXXXXXXX$$##XX..                    ",
"                    ..####$$##$$##$$##XX..                      ",
"                    ..####$$##$$##$$##XX..                      ",
"                    ..XX####XX$$XX##ooXX..                      ",
"                    ..XX####XX$$XX##ooXX..                      ",
"                      ..oooo..##..ooXX..                        ",
"                      ..oooo..##..ooXX..                        ",
"                        ..XX..##..XX..                          ",
"                        ..XX..##..XX..                          ",
"                            ..$$..                              ",
"                            ..$$..                              ",
"                              ..                                ",
"                              ..                                ",
"                                                                ",
"                                                                "
};
