/* XPM */
static char *player_rside41651017586[] = {
/* columns rows colors chars-per-pixel */
"16 19 11 1 ",
"  c None",
". c gray11",
"X c #262631",
"o c #513322",
"O c #68422B",
"+ c #444457",
"@ c #4C8F25",
"# c #57A42B",
"$ c #D19262",
"% c #F7B080",
"& c white",
/* pixels */
"                ",
"  .....         ",
" .#####..       ",
"  ..#####...    ",
"   .@@####@@.   ",
"  .#####@@oo.   ",
"  .oooOO%%%%%.  ",
"  .oOOO%%%..%.  ",
"  .oOO%%%%&.%.  ",
"  .oOO%%%%&.%%. ",
"  .OOO%%%%%%%%. ",
"   .OOO%%%%%%.  ",
"    .$$$%%$$.   ",
"     .####@@.   ",
"    .###..##.   ",
"    .##.%%.@.   ",
"    .##.%$.@.   ",
"     .X...+.    ",
"     .XX..++.   "
};
