/* XPM */
static char *player_front11651060686[] = {
/* columns rows colors chars-per-pixel */
"17 19 14 1 ",
"  c None",
". c gray11",
"X c #2F303C",
"o c #524C37",
"O c #68422B",
"+ c #775331",
"@ c #9E6F4A",
"# c #B57F55",
"$ c #4C8F25",
"% c #57A42B",
"& c #D19262",
"* c #A4A4A4",
"= c #F7B080",
"- c white",
/* pixels */
"                 ",
"       ......    ",
"      .$%%%%$.   ",
"     .%%$$$$%%.  ",
"    .%%%%%%%%%%. ",
"   ..O==OOO==OO. ",
"   .O=========O. ",
"   .O..=====..O. ",
"   .O-.=====.-O. ",
"   .&-.==#==.-&. ",
"    .====@====.  ",
"    .=========.  ",
"     .&&===&&.   ",
"    ..%%%o%%%..  ",
"   .==.%%o%%.==. ",
"   .=&.%%+%%.&=. ",
"    ..OO***OO..  ",
"     .XXX....    ",
"      .XX.XX.    "
};
