/* XPM */
static char *player_back21651017585[] = {
/* columns rows colors chars-per-pixel */
"15 19 11 1 ",
"  c None",
". c gray11",
"X c #2F303C",
"o c #563521",
"O c #68422B",
"+ c #4C8F25",
"@ c #57A42B",
"# c #62B632",
"$ c #D19262",
"% c #A4A4A4",
"& c #F7B080",
/* pixels */
"               ",
"     .....     ",
"    .#####.    ",
"  ..#@@@@@@..  ",
" .##@@@@@@@@@. ",
" .++@@@@@@@++. ",
" .@+++@@@+++.. ",
" ..@++++++..o. ",
" .O.@@@@@.ooO. ",
" .O.++@@.oOOO. ",
"  .O.++.oOOO.  ",
"  .$O..oOOO$.  ",
" .&.$$OOO$$..  ",
" .$........... ",
"  ..@@@@@@.$&. ",
"   .+@@@@@.$$. ",
"   .+++@OOO..  ",
"   .OO%%....   ",
"    .XX.       "
};
