/* XPM */
static char *player_side11651017586[] = {
/* columns rows colors chars-per-pixel */
"16 19 10 1 ",
"  c None",
". c gray11",
"X c #513322",
"o c #68422B",
"O c #444457",
"+ c #4C8F25",
"@ c #57A42B",
"# c #D19262",
"$ c #F7B080",
"% c white",
/* pixels */
"                ",
"         ...    ",
"       ..@@@..  ",
"    ...@@@@@@@. ",
"   .++@@@@++.@. ",
"   .XX++@@@@@.  ",
"  .$$$$$ooXXX.  ",
"  .$..$$$oooX.  ",
"  .$.%$$$$ooX.  ",
" .$$.%$$$$ooX.  ",
" .$$$$$$$$ooo.  ",
"  .$$$$$$ooo.   ",
"   .##$$###.    ",
"   .++@@@@.     ",
"   .@@@..@@.    ",
"   .+@.$$.@.    ",
"   .++.#$.+.    ",
"    ..O....     ",
"    .OOOO.      "
};
