/* XPM */
static char *rock31651073119[] = {
/* columns rows colors chars-per-pixel */
"8 16 5 1 ",
"  c None",
". c gray30",
"X c gray38",
"o c #929292",
"O c #AAAAAA",
/* pixels */
"        ",
"        ",
"    .   ",
"   .O.  ",
"   .O.  ",
"   .O.  ",
"   .O.  ",
"  .XO.  ",
"  .XO.  ",
"  .oO.  ",
" .XoOO. ",
" .oXXO. ",
" .ooXO. ",
".ooXOOO.",
".ooOOOO.",
"        "
};
