/* XPM */
static char *num51651785365[] = {
/* columns rows colors chars-per-pixel */
"64 64 2 1 ",
"  c None",
". c black",
/* pixels */
"                                                                ",
"                                                                ",
"                                   .........                    ",
"                                  ..........                    ",
"                                 ...........                    ",
"                                 ...........                    ",
"                                ............                    ",
"                               .............                    ",
"                               .............                    ",
"                              ..............                    ",
"                             ...............                    ",
"                             ......  .......                    ",
"                            .......  .......                    ",
"                           .......  ........                    ",
"                           .......  ........                    ",
"                          .......   ........                    ",
"                         ........   ........                    ",
"                        ........    ........                    ",
"                        .......     ........                    ",
"                       ........     ........                    ",
"                      ........      ........                    ",
"                      .......       ........                    ",
"                     ........       ........                    ",
"                    ........        ........                    ",
"                    .......         ........                    ",
"                   .......          ........                    ",
"                  ........          ........                    ",
"                  .......           ........                    ",
"                 .......            ........                    ",
"                ........            ........                    ",
"               ........             ........                    ",
"               .......              ........                    ",
"              .......               ........                    ",
"             ........               ........                    ",
"             .......                ........                    ",
"            .......                 ........                    ",
"           ........                 ........                    ",
"           .......                  ........                    ",
"          .......                   ........                    ",
"         ...........................................            ",
"         ...........................................            ",
"         ...........................................            ",
"         ...........................................            ",
"         ...........................................            ",
"         ...........................................            ",
"                                    ........                    ",
"                                    ........                    ",
"                                    ........                    ",
"                                    ........                    ",
"                                    ........                    ",
"                                    ........                    ",
"                                    ........                    ",
"                                    ........                    ",
"                                    ........                    ",
"                                    ........                    ",
"                                    ........                    ",
"                                    ........                    ",
"                                    ........                    ",
"                                    ........                    ",
"                                    ........                    ",
"                                    ........                    ",
"                                    ........                    ",
"                                                                ",
"                                                                "
};
