/* XPM */
static char *num91651785366[] = {
/* columns rows colors chars-per-pixel */
"64 64 2 1 ",
"  c None",
". c black",
/* pixels */
"                                                                ",
"                           .........                            ",
"                        ................                        ",
"                     .....................                      ",
"                    .......................                     ",
"                  ..........................                    ",
"                 ............................                   ",
"                ...........        ...........                  ",
"                .........            ..........                 ",
"               .........               ........                 ",
"              .........                .........                ",
"              ........                  ........                ",
"              .......                    ........               ",
"             ........                    ........               ",
"             ........                    ........               ",
"             ........                    ........               ",
"             ........                    ........               ",
"             ........                    ........               ",
"             ........                    ........               ",
"             ........                    .......                ",
"              ........                   .......                ",
"              ........                  ........                ",
"              .........                ........                 ",
"               .........               ........                 ",
"               ..........            .........                  ",
"                ...........         .........                   ",
"                 ............      .........                    ",
"                  .........................                     ",
"                   ......................                       ",
"                     ...................                        ",
"                      ..................                        ",
"                     .....................                      ",
"                   .........................                    ",
"                  ...........  ..............                   ",
"                ..........        ............                  ",
"               ..........           ...........                 ",
"              .........               ..........                ",
"              ........                 ..........               ",
"             ........                   .........               ",
"            .........                    .........              ",
"            ........                      ........              ",
"            ........                      .........             ",
"           ........                       .........             ",
"           ........                        ........             ",
"           ........                        ........             ",
"           ........                        ........             ",
"           ........                        ........             ",
"           ........                        ........             ",
"           ........                        ........             ",
"           .........                       ........             ",
"           .........                      ........              ",
"            ........                      ........              ",
"            .........                    .........              ",
"            ..........                  .........               ",
"             ..........                ..........               ",
"              ..........              ..........                ",
"              .............        ............                 ",
"               ...............................                  ",
"                 ............................                   ",
"                  .........................                     ",
"                    ......................                      ",
"                      .................                         ",
"                          ..........                            ",
"                                                                "
};
