/* XPM */
static char *portail41651103201[] = {
/* columns rows colors chars-per-pixel */
"64 64 238 2 ",
"   c None",
".  c #8A1BBD",
"X  c #8A1BBE",
"o  c #8B1BBE",
"O  c #8B1CBE",
"+  c #8B1CBF",
"@  c #8C1CBF",
"#  c #8C1DBF",
"$  c #8C1DC0",
"%  c #8D1DC0",
"&  c #8D1DC1",
"*  c #8D1EC1",
"=  c #8E1EC1",
"-  c #8E1EC2",
";  c #8E1FC2",
":  c #8F1FC2",
">  c #8F1FC3",
",  c #901FC3",
"<  c #901FC4",
"1  c #9020C3",
"2  c #9020C4",
"3  c #9120C4",
"4  c #9020C5",
"5  c #9120C5",
"6  c #9121C5",
"7  c #9221C5",
"8  c #9121C6",
"9  c #9221C6",
"0  c #9321C6",
"q  c #9321C7",
"w  c #9222C6",
"e  c #9222C7",
"r  c #9322C7",
"t  c #9422C8",
"y  c #9423C8",
"u  c #9423C9",
"i  c #9523C9",
"p  c #9523CA",
"a  c #9524C9",
"s  c #9524CA",
"d  c #9624CA",
"f  c #9624CB",
"g  c #9724CB",
"h  c #9625CB",
"j  c #9725CB",
"k  c #9725CC",
"l  c #9825CC",
"z  c #9825CD",
"x  c #9826CC",
"c  c #9826CD",
"v  c #9926CD",
"b  c #9927CD",
"n  c #9826CE",
"m  c #9926CE",
"M  c #9927CE",
"N  c #9927CF",
"B  c #9A27CE",
"V  c #9A27CF",
"C  c #9B27CF",
"Z  c #9A28D0",
"A  c #9B28D0",
"S  c #9B28D1",
"D  c #9C28D1",
"F  c #9C29D1",
"G  c #9C29D2",
"H  c #9D29D2",
"J  c #9D29D3",
"K  c #9E29D3",
"L  c #9D2AD2",
"P  c #9D2AD3",
"I  c #9E2AD2",
"U  c #9E2AD3",
"Y  c #9E2AD4",
"T  c #9F2AD4",
"R  c #9E2BD4",
"E  c #9E2AD5",
"W  c #9F2BD5",
"Q  c #9F2BD6",
"!  c #A02BD5",
"~  c #A02BD6",
"^  c #A02CD5",
"/  c #A02CD6",
"(  c #A12CD6",
")  c #A12CD7",
"_  c #A12DD7",
"`  c #A22CD7",
"'  c #A12CD8",
"]  c #A12DD8",
"[  c #A22CD8",
"{  c #A22DD8",
"}  c #A32DD8",
"|  c #A22DD9",
" . c #A32DD9",
".. c #A32ED9",
"X. c #A32EDA",
"o. c #A32FDA",
"O. c #A32EDB",
"+. c #A32FDB",
"@. c #A42ED9",
"#. c #A42EDA",
"$. c #A42FDA",
"%. c #A42EDB",
"&. c #A52EDB",
"*. c #A42FDB",
"=. c #A52FDB",
"-. c #A62FDB",
";. c #A42EDC",
":. c #A52EDC",
">. c #A52FDC",
",. c #A62FDC",
"<. c #A630DC",
"1. c #A630DD",
"2. c #A730DD",
"3. c #A631DD",
"4. c #A731DD",
"5. c #A630DE",
"6. c #A730DE",
"7. c #A631DE",
"8. c #A731DE",
"9. c #A830DE",
"0. c #A831DE",
"q. c #A831DF",
"w. c #A931DF",
"e. c #A832DF",
"r. c #A932DF",
"t. c #A831E0",
"y. c #A931E0",
"u. c #A832E0",
"i. c #A932E0",
"p. c #A933E0",
"a. c #AA33E0",
"s. c #AA32E1",
"d. c #AB32E1",
"f. c #AA33E1",
"g. c #AB33E1",
"h. c #AA33E2",
"j. c #AB33E2",
"k. c #AB33E3",
"l. c #AC33E3",
"z. c #AB34E2",
"x. c #AB34E3",
"c. c #AC34E3",
"v. c #AD35E3",
"b. c #AC34E4",
"n. c #AD34E4",
"m. c #AC35E4",
"M. c #AD35E4",
"N. c #AD35E5",
"B. c #AE35E5",
"V. c #AE35E6",
"C. c #AF35E6",
"Z. c #AE36E6",
"A. c #AF36E6",
"S. c #AE37E6",
"D. c #AF37E6",
"F. c #AF36E7",
"G. c #AF37E7",
"H. c #AF36E8",
"J. c #AF37E8",
"K. c #B036E7",
"L. c #B037E7",
"P. c #B137E7",
"I. c #B036E8",
"U. c #B136E8",
"Y. c #B037E8",
"T. c #B137E8",
"R. c #B037E9",
"E. c #B137E9",
"W. c #B237E9",
"Q. c #B137EA",
"!. c #B138E8",
"~. c #B138E9",
"^. c #B139E9",
"/. c #B239E9",
"(. c #B138EA",
"). c #B139EA",
"_. c #B238EA",
"`. c #B338EA",
"'. c #B239EA",
"]. c #B339EA",
"[. c #B238EB",
"{. c #B338EB",
"}. c #B239EB",
"|. c #B339EB",
" X c #B439EB",
".X c #B339EC",
"XX c #B439EC",
"oX c #B439ED",
"OX c #B43AEC",
"+X c #B53AEC",
"@X c #B43BEC",
"#X c #B53BEC",
"$X c #B43AED",
"%X c #B53AED",
"&X c #B43BED",
"*X c #B53BED",
"=X c #B63BED",
"-X c #B43AEE",
";X c #B53AEE",
":X c #B43BEE",
">X c #B53BEE",
",X c #B63AEE",
"<X c #B73AEE",
"1X c #B63BEE",
"2X c #B73BEE",
"3X c #B73AEF",
"4X c #B63BEF",
"5X c #B73BEF",
"6X c #B63CEE",
"7X c #B63CEF",
"8X c #B73CEF",
"9X c #B73DEF",
"0X c #B83CEF",
"qX c #B83DEF",
"wX c #B63BF0",
"eX c #B73BF0",
"rX c #B63CF0",
"tX c #B73CF0",
"yX c #B73DF0",
"uX c #B73DF1",
"iX c #B83CF0",
"pX c #B83DF0",
"aX c #B83CF1",
"sX c #B93CF1",
"dX c #B83DF1",
"fX c #B93DF1",
"gX c #B93EF1",
"hX c #B83CF2",
"jX c #B93CF2",
"kX c #B83DF2",
"lX c #B93DF2",
"zX c #BA3DF3",
"xX c #B83EF2",
"cX c #B93EF2",
"vX c #B93EF3",
"bX c #BA3EF2",
"nX c #BA3EF3",
"mX c #BA3EF4",
/* pixels */
"                                                . . . . . . . . . . . . . . . .                                                 ",
"                                          . . . . . . . . . . . . . . . . . . . . . .                                           ",
"                                    . . . . . . . . . . . . . . . . . . . . . . . . . . . .                                     ",
"                                . . . . . . . . . . . . . . . . . . . . . . . . . . . . . . . .                                 ",
"                            . . . . . . . . . . . . . . . . . . . . . . . . . . . . . . . . . . . .                             ",
"                          . . . . . . . . . . . . . . . . . . . . . . . . . . . . . . . . . . . . . .                           ",
"                        . . . . . . . . . . . . . . . . . . . . . . . . . . . . . . . . . . . . . . . .                         ",
"                    . . . . . . . . . . . . . . . . . . . . . . . . . . . . . . . . . . . . . . . . . . . .                     ",
"                  . . . . . . . . . . . . . . . i k 8XuXwXbXbXuXbXuXuXbXuX8Xg t . . . . . . . . . . . . . . .                   ",
"                . . . . . . . . . . . . . i } 2.mXbXbXuXbXuXuX5XwXbX8X5XwXbXbXbXt.} t . . . . . . . . . . . . .                 ",
"              . . . . . . . . . . . . & G.wXbXmXbXbX5X5X5X.X5X.XOXOXOX+X.X&X8XuXwXbXuXx.& . . . . . . . . . . . .               ",
"              . . . . . . . . . . . 2.uXbXbXbXuX5X5X5XR.OXOXR.R.G.OXL.L.OXJ.OX.X5X5XuXuXbX2.. . . . . . . . . . .               ",
"            . . . . . . . . . . . 2.mXbXbX8X5X5XOXOXR.K.H.G.G.G.v.v.G.f.G.G.H.J.J.OX+X5X5XuX2.. . . . . . . . . . .             ",
"          . . . . . . . . . . J H.bXbXmXuX5XOXOXK.G.b.G.x.x.i.0.t.i.t.f.i.i.x.x.G.G.K.OX.X5X5XG.J . . . . . . . . . .           ",
"        . . . . . . . . . . J bXbXmXuX5X5XOXR.G.l.G.i.i.2.2.2.:.%.:.:.:.2.2.2.2.0.G.G.R.R.OX5X5XbXJ . . . . . . . . . .         ",
"        . . . . . . . . . J mXbXbXbX8XOXOXG.G.v.i.0.0.:.:.} } %.} ^ ^ } } } <.<.:.0.i.i.G.R.R.5X5XbXJ . . . . . . . . .         ",
"      . . . . . . . . . . R.mXbXbXwX5XOXG.G.i.i.:.:.%.} ^ ^ P P P P P P P P ^ } } 2.0.0.i.G.G.OX.X8XOX. . . . . . . . . .       ",
"      . . . . . . . . . 0.mXbXmXuX.XR.G.l.i.0.:.:.' ^ P J P Z Z C C C C J P P P Q Q <.2.0.i.l.G.OX.X&X2.. . . . . . . . .       ",
"    . . . . . . . . . :.mXmXbXbX5XOXG.G.l.0.:.%.' P J C C b k k n f k k b C B Z J J ! %.:.0.i.G.G.OX&XuX2.# . . . . . . . .     ",
"    . . . . . . . . & bXmXbXiXwX.XH.G.0.0.%.} ! P C C b k k i i t f t i t f g b B J ! ^ ^ <.0.l.G.G.OX8XuX# . . . . . . . .     ",
"  . . . . . . . . . G.bXbXbX5X5XH.G.v.0.%.^ ^ J b b b f i r r e t t t < w y g g g B B J ^ ^ 2.i.i.G.K.5X5Xf.. . . . . . . . .   ",
"  . . . . . . . . i 5XbXmX0X5XR.G.G.0.2.} ^ J J b g i t e e e 1 > > 4 > 4 e e e g g B B J ^ } :.i.i.G.+X5X5Xg . . . . . . . .   ",
"  . . . . . . . . %.bXmXbX5X5XK.G.0.0.%.! J B b g i e e , , 1 , & : > > : 4 : 4 t y k n Z J Q <.2.l.G.R.OX8X} . . . . . . . .   ",
"  . . . . . . . i bXmXbXiX5XR.G.i.i.%.! ! J b g i r , e , & & & & & & & : : : 4 4 y y g b J P } :.0.i.R.OX+X8Xg . . . . . . .   ",
". . . . . . . . i mXbXmXbX.XR.G.b.0.%.! J C k i t e > & & & # # $ $ $ # $ $ & > 1 e e i j b P ^ } 2.i.G.G.5XuXy . . . . . . . . ",
". . . . . . . . g bXmXbX5XR.R.v.i.%.^ J C b f t e & 1 & & & # # # # . # # $ & & & e e r g b B Q } :.i.v.K.OX8Xg . . . . . . . . ",
". . . . . . . . 5XmXbXbX5XOXH.b.0.+.^ ! b b r e 1 1 & & # . . # # . # . # . # & & 1 1 e i g B J P 2.0.v.G.OX5X.X. . . . . . . . ",
". . . . . . . . bXbXmXuX+XOXG.i.2.} ! J b g r e 1 : & & & . # . . . . . . # # # & & 1 e i g B Z Q } 0.0.G.R.5X.X. . . . . . . . ",
". . . . . . . . uXbXbXuX5XR.v.i.2.} P J b i e < , & & # . # . . . . . . . # . & & : : e t y k Z P } 2.i.i.OX.X5X. . . . . . . . ",
". . . . . . . . uXbXbXuX+XR.G.i.2.Q P Z b i e e 1 & # . . . . . . . . . . o # . $ & : : e g b Z P } 2.f.G.K.5X5X. . . . . . . . ",
". . . . . . . . bXmXbX5X+XR.v.0.2.^ P b k t e < : & # # # . . . . . . . . . . & # & : 4 e t k Z J } } i.G.G.OX8X. . . . . . . . ",
". . . . . . . . uXbXmX5XOXG.G.2.<.Q J Z k t e > : # # # . . . . . . . . . . # . $ & & : e y k B J Q 2.t.v.G.+X8X. . . . . . . . ",
". . . . . . . . bXbXbXuX5XK.G.i.:.} P C j i e 1 & & # o o . . . . . . . . . . # # & : e e e f C P ' %.i.i.OXOX5X. . . . . . . . ",
". . . . . . . . uXmXbXwX+XR.f.i.:.} P C b r e 1 1 & & & # . . . . . . . . . # . # # 1 1 e i b D P ' -.i.G.K..X5X. . . . . . . . ",
". . . . . . . . uXbXbXbXOXR.G.i.2.} P D b i r e 1 & # o . # . . . . . . . . . & & , , 1 r i b D ! ^ 2.i.G.J..X5X. . . . . . . . ",
". . . . . . . . bXmXbXwX+XOXR.i.2.} P J b i r e 1 & & # # . # . . . . . # # . & & & , e r i b D ! %.2.l.x.OX8X8X. . . . . . . . ",
". . . . . . . . wXmXbXbXwXOXG.i.t.<.Q Z Z k i e 1 , & & # # # o . # # # . o & # & 1 e r i b b ! ^ %.0.b.G.OX5X5X. . . . . . . . ",
". . . . . . . . 5XbXmXbXiXR.G.l.t.2.^ Q B b g e e 1 1 & # # # # # . # # & # & & & e 1 r i b D J } %.i.i.K.OXuXwX. . . . . . . . ",
". . . . . . . . i mXbXmXiX5XR.b.i.2.} ^ J B g g r 1 1 , & & & # # # # # & & & 1 < < i i f b J ^ %.2.f.G.R.5XwXi . . . . . . . . ",
". . . . . . . . i bXmXbXwX5X+XG.x.i.:.} J J b g i e e 1 1 & & # & # & & & & 1 1 < e t g b J ! ^ <.0.v.G.OX5XiXi . . . . . . . . ",
"  . . . . . . . i bXbXmXbXwXOXG.G.i.:.:.^ J J j f i t e 4 : & , & : & 1 & > e e e i i b J J ^ %.0.i.G.G.+X5XbXi . . . . . . .   ",
"  . . . . . . . # :.bXbXmXwX5XR.G.G.i.:.%.^ J C b k i t e e e , e & & e e e e e i i b D J ^ } <.i.i.G.OX5XiX%.. . . . . . . .   ",
"  . . . . . . . . i 5XbXbXbXuX5XR.G.i.i.2.} ^ J Z b k g i r r e e e e e t t i f k C C P ! ^ :.0.i.K.R.5X5X.Xi . . . . . . . .   ",
"  . . . . . . . . # f.mXmXbXbX5XOXG.b.i.2.2.^ ^ P Z Z C j g g i e g e g i f k b C D P ! %.%.0.0.v.OX.XwXbXf.. . . . . . . . .   ",
"    . . . . . . . . $ mXmXbXmXwX5XOXR.f.f.i.:.} } P P Z B b b j g g b b k b C C Z P Q ^ 2.2.0.G.G.R.5X5XmX& # . . . . . . .     ",
"    . . . . . . . . . :.bXmXbXbX5X.XOXG.x.f.2.2.} Q Q P J J C J C B b C C D P P Q } <.2.i.f.G.K.OX5X5XbX:.# . . . . . . . .     ",
"      . . . . . . . . . 2.mXmXbXbX5X.XOXH.v.f.i.t.2.} ^ ^ Q J J J P P ! P P ' ' :.:.2.f.f.G.G.R..X5XbX:.. . . . . . . . .       ",
"      . . . . . . . . . . OXbXmXbXuX5X5XOXH.G.G.f.t.2.<.<.} %.^ } ^ %.^ +.%.:.:.2.t.f.f.G.R.OX+XuXuXOX. . . . . . . . . .       ",
"        . . . . . . . . . P mXmXmXbXbXwX5XOXR.G.G.i.l.0.0.<.2.<.%.<.<.%.2.2.0.0.f.x.f.G.H.OX5XuXbXmXJ . . . . . . . . .         ",
"        . . . . . . . . . . J bXbXmXmXbXwX5X.XOXR.G.G.G.l.l.0.i.i.i.0.0.e.i.G.v.G.J.H.OX.X5XuXbXbXZ . . . . . . . . . .         ",
"          . . . . . . . . . . J H.bXbXbXmXuXuX5XOXOXR.K.G.b.G.v.G.v.G.l.G.G.G.K.R..X5X5XuXbXbXH.J . . . . . . . . . .           ",
"            . . . . . . . . . . # :.mXbXbXmXbXwX5X5X.XOXR.OXR.G.R.K.R.K.R.R.R..X.X5XwXiXbXbX:.. . . . . . . . . . .             ",
"              . . . . . . . . . . . :.uXmXbXbXmXbXuXuX5X5X5X.X5X5X+X+XOX5X5X5X5XbXuXbXbXbX:.# . . . . . . . . . .               ",
"              . . . . . . . . . . . # & G.5XmXmXmXbXbXbXiXwXbXiX5X8XqX8XwXuXwXmXbXmX5XG.& . . . . . . . . . . . .               ",
"                . . . . . . . . . . . . . t } 2.mXmXbXbXmXbXbXmXbXbXbXbXbXbXbXmXt.' t . . . . . . . . . . . . .                 ",
"                  . . . . . . . . . . . . . . . i f bXuXuXbXuXuXbXuXuXbXbXwXf i . . . . . . . . . . . . . . .                   ",
"                    . . . . . . . . . . . . . . . . . . . . . . . . . . . . . . . . . . . . . . . . . . . .                     ",
"                        . . . . . . . . . . . . . . . . . . . . . . . . . . . . . . . . . . . . . . . .                         ",
"                          . . . . . . . . . . . . . . . . . . . . . . . . . . . . . . . . . . . . . .                           ",
"                            . . . . . . . . . . . . . . . . . . . . . . . . . . . . . . . . . . . .                             ",
"                                . . . . . . . . . . . . . . . . . . . . . . . . . . . . . . . .                                 ",
"                                    . . . . . . . . . . . . . . . . . . . . . . . . . . . .                                     ",
"                                          . . . . . . . . . . . . . . . . . . . . . .                                           ",
"                                                . . . . . . . . . . . . . . . .                                                 "
};
