/* XPM */
static char *portail31651103201[] = {
/* columns rows colors chars-per-pixel */
"64 64 187 2 ",
"   c None",
".  c #8A1BBD",
"X  c #8A1BBE",
"o  c #8B1BBE",
"O  c #8B1CBE",
"+  c #8B1CBF",
"@  c #8C1CBF",
"#  c #8C1DBF",
"$  c #8C1DC0",
"%  c #8D1DC0",
"&  c #8D1DC1",
"*  c #8D1EC1",
"=  c #8E1EC1",
"-  c #8E1EC2",
";  c #8F1EC2",
":  c #8E1FC2",
">  c #8F1FC2",
",  c #8F1FC3",
"<  c #9020C4",
"1  c #9120C4",
"2  c #9121C4",
"3  c #9120C5",
"4  c #9121C5",
"5  c #9221C6",
"6  c #9321C7",
"7  c #9222C7",
"8  c #9322C7",
"9  c #9322C8",
"0  c #9422C8",
"q  c #9423C8",
"w  c #9423C9",
"e  c #9523C9",
"r  c #9523CA",
"t  c #9524C9",
"y  c #9524CA",
"u  c #9724CB",
"i  c #9725CB",
"p  c #9724CC",
"a  c #9725CC",
"s  c #9726CC",
"d  c #9825CC",
"f  c #9825CD",
"g  c #9826CD",
"h  c #9926CD",
"j  c #9926CE",
"k  c #9927CE",
"l  c #9A26CE",
"z  c #9A28D0",
"x  c #9B28D0",
"c  c #9B28D1",
"v  c #9C28D1",
"b  c #9C29D1",
"n  c #9D29D1",
"m  c #9C29D2",
"M  c #9D29D2",
"N  c #9D29D3",
"B  c #9E29D3",
"V  c #9D2AD2",
"C  c #9D2AD3",
"Z  c #9E2AD3",
"A  c #9E2AD4",
"S  c #9F2AD4",
"D  c #9F2BD5",
"F  c #9F2BD6",
"G  c #A02BD6",
"H  c #A02CD5",
"J  c #A02CD6",
"K  c #A12CD6",
"L  c #A12CD7",
"P  c #A12DD7",
"I  c #A22CD7",
"U  c #A12CD8",
"Y  c #A12DD8",
"T  c #A22CD8",
"R  c #A22DD8",
"E  c #A32DD8",
"W  c #A22DD9",
"Q  c #A32DD9",
"!  c #A32ED8",
"~  c #A32ED9",
"^  c #A32EDA",
"/  c #A42EDA",
"(  c #A42FDA",
")  c #A42EDB",
"_  c #A42FDB",
"`  c #A630DD",
"'  c #A730DD",
"]  c #A631DD",
"[  c #A731DD",
"{  c #A630DE",
"}  c #A730DE",
"|  c #A631DE",
" . c #A731DE",
".. c #A831DE",
"X. c #A831DF",
"o. c #A832DF",
"O. c #A932DF",
"+. c #A832E0",
"@. c #A932E0",
"#. c #A933E0",
"$. c #AA32E0",
"%. c #AA33E0",
"&. c #AA32E1",
"*. c #AA33E1",
"=. c #AB33E1",
"-. c #AA32E2",
";. c #AA33E2",
":. c #AB33E2",
">. c #AB33E3",
",. c #AC33E2",
"<. c #AC33E3",
"1. c #AB34E2",
"2. c #AB34E3",
"3. c #AC34E3",
"4. c #AD35E3",
"5. c #AC34E4",
"6. c #AD34E4",
"7. c #AC35E4",
"8. c #AD35E4",
"9. c #AD35E5",
"0. c #AE35E5",
"q. c #AD36E5",
"w. c #AE36E5",
"e. c #AE35E6",
"r. c #AF35E6",
"t. c #AE36E6",
"y. c #AF36E6",
"u. c #AF37E6",
"i. c #AF36E7",
"p. c #B036E7",
"a. c #B037E8",
"s. c #B137E8",
"d. c #B037E9",
"f. c #B137E9",
"g. c #B137EA",
"h. c #B138E9",
"j. c #B238E9",
"k. c #B239E9",
"l. c #B138EA",
"z. c #B139EA",
"x. c #B238EA",
"c. c #B338EA",
"v. c #B239EA",
"b. c #B339EA",
"n. c #B238EB",
"m. c #B338EB",
"M. c #B239EB",
"N. c #B339EB",
"B. c #B439EB",
"V. c #B43AEB",
"C. c #B339EC",
"Z. c #B33AEC",
"A. c #B33AED",
"S. c #B439EC",
"D. c #B43AEC",
"F. c #B53AEC",
"G. c #B43AED",
"H. c #B53AED",
"J. c #B43BED",
"K. c #B53BED",
"L. c #B73BED",
"P. c #B43AEE",
"I. c #B53AEE",
"U. c #B53BEE",
"Y. c #B63AEE",
"T. c #B73AEE",
"R. c #B63BEE",
"E. c #B63AEF",
"W. c #B63BEF",
"Q. c #B63CEF",
"!. c #B73CEF",
"~. c #B73DEF",
"^. c #B73BF0",
"/. c #B63CF0",
"(. c #B73CF0",
"). c #B73DF0",
"_. c #B83CF1",
"`. c #B93CF1",
"'. c #B83DF1",
"]. c #B93DF1",
"[. c #B83CF2",
"{. c #B93CF2",
"}. c #B83DF2",
"|. c #B93DF2",
" X c #B83EF2",
".X c #B93EF2",
"XX c #BA3EF3",
/* pixels */
"                                                . . . . . . . . . . . . . . . .                                                 ",
"                                          . . . . . . . . . . . . . . . . . . . . . .                                           ",
"                                    . . . . . . . . . . . . . . . . . . . . . . . . . . . .                                     ",
"                                . . . . . . . . . . . . . . . . . . . . . . . . . . . . . . . .                                 ",
"                            . . . . . . . . . . . . . . . . . . . . . . . . . . . . . . . . . . . .                             ",
"                          . . . . . . . . . . . . . . . . . . . . . . . . . . . . . . . . . . . . . .                           ",
"                        . . . . . . . . . . . . . . . . . . . . . . . . . . . . . . . . . . . . . . . .                         ",
"                    . . . . . . . . . . . . . . . . . . . . . . . . . . . . . . . . . . . . . . . . . . . .                     ",
"                  . . . . . . . . . . . . . . . . . . . . . . . . . . . . . . . . . . . . . . . . . . . . . .                   ",
"                . . . . . . . . . . . . . . . . . . . . . . . . . . . . . . . . . . . . . . . . . . . . . . . .                 ",
"              . . . . . . . . . . . . . . . . . . . . . . . . . . . . . . . . . . . . . . . . . . . . . . . . . .               ",
"              . . . . . . . . . . . . . . . . . . . . . . . . . . . . . . . . . . . . . . . . . . . . . . . . . .               ",
"            . . . . . . . . . . . . . . . . . . . . . . . . . . . . . . . . . . . . . . . . . . . . . . . . . . . .             ",
"          . . . . . . . . . . . . . . . . . . . . . . . . . . . . . . . . . . . . . . . . . . . . . . . . . . . . . .           ",
"        . . . . . . . . . . . . . . . . . . . . . . . . . . . . . . . . . . . . . . . . . . . . . . . . . . . . . . . .         ",
"        . . . . . . . . . . . . . . . . . . . . . . . . . . . . . . . . . . . . . . . . . . . . . . . . . . . . . . . .         ",
"      . . . . . . . . . . . . . . . . . . . . . . > j W H..X!.!.(.(.(.!./ y & . . . . . . . . . . . . . . . . . . . . . .       ",
"      . . . . . . . . . . . . . . . . . . . . & / g..X(.(.!.!.H.H.H.!.H.`..XN.W & . . . . . . . . . . . . . . . . . . . .       ",
"    . . . . . . . . . . . . . . . . . . . . j H..X.X!.H.H.g.N.N.N.p.N.N.V.H.!..XH.j . . . . . . . . . . . . . . . . . . . .     ",
"    . . . . . . . . . . . . . . . . . . & L (..X!.H.N.g.y.y.3.&.;.&.5.3.y.g.N.V..X!.L & . . . . . . . . . . . . . . . . . .     ",
"  . . . . . . . . . . . . . . . . . . & ,..X.XH.C.g.y.,.....] } ] ] ] &.;.3.y.N.N.H.^.5.& . . . . . . . . . . . . . . . . . .   ",
"  . . . . . . . . . . . . . . . . . . W .X.XH.g.i.5..._ ] W W G L L W L W ] ..;.y.N.H..XW . . . . . . . . . . . . . . . . . .   ",
"  . . . . . . . . . . . . . . . . . j ^..XH.N.y.,.] / T G V V v v V V V F L / ] ;.y.g.H.(.j . . . . . . . . . . . . . . . . .   ",
"  . . . . . . . . . . . . . . . . & ^..XH.N.y.&.] W G V x j s s s 0 j j c V F L ] &.y.N.H.(.& . . . . . . . . . . . . . . . .   ",
". . . . . . . . . . . . . . . . . / .X.XN.y.&.] W G l j j 0 y 9 9 9 0 s p j c D L ] ;.y.N.!.W . . . . . . . . . . . . . . . . . ",
". . . . . . . . . . . . . . . . 2 N.(.H.N.&.] W G j j y 0 2 2 3 , 3 2 2 9 0 j z D W ..3.a.H.N.< . . . . . . . . . . . . . . . . ",
". . . . . . . . . . . . . . . . G .X^.N.y.+.W D z j y 2 2 > & & & & , 2 3 9 0 j c F / &.y.N.!.F . . . . . . . . . . . . . . . . ",
". . . . . . . . . . . . . . . . W .XH.g.&.] W V j y 0 2 2 & & # & & # & & 2 2 y j V W _ ;.N.C.L . . . . . . . . . . . . . . . . ",
". . . . . . . . . . . . . . . . H..XN.y.&.W D c y 0 2 & & & # # . # & . & , 2 9 j z D _ o.y.N.C.. . . . . . . . . . . . . . . . ",
". . . . . . . . . . . . . . . . .XH.N.y.&.W V j y 2 , & . & . # . . . & & & 2 2 0 j V W ] y.N.H.. . . . . . . . . . . . . . . . ",
". . . . . . . . . . . . . . . . H.(.N.7.] W c j 0 2 , & & . . . . . . . & & & 2 0 j V L ..y.N.N.. . . . . . . . . . . . . . . . ",
". . . . . . . . . . . . . . . . .XH.g.&.] L c s 0 2 & & . # . . . . . . . & , 2 2 j z L ] ;.g.N.. . . . . . . . . . . . . . . . ",
". . . . . . . . . . . . . . . . !.H.N.3.] G z j 2 2 & # o . . . . . . . & . , 2 2 j z G ] 5.i.C.. . . . . . . . . . . . . . . . ",
". . . . . . . . . . . . . . . . !.H.g.3._ G V y 0 2 & # # . . . . . . . . & & < q i V G _ 5.N.N.. . . . . . . . . . . . . . . . ",
". . . . . . . . . . . . . . . . (.(.N.;.] W V j y 2 & & o # . . . . . # . & & 2 q j V L ] &.N.C.. . . . . . . . . . . . . . . . ",
". . . . . . . . . . . . . . . . !.(.V.3.../ V j p 2 2 & # . # . . & . . & & < 9 y j V W &.y.N.N.. . . . . . . . . . . . . . . . ",
". . . . . . . . . . . . . . . . L (.C.y.;.] V c s 9 2 , & & & # # . # & , , 2 2 y x H / &.y.H.G . . . . . . . . . . . . . . . . ",
". . . . . . . . . . . . . . . . F .XC.N.&.] L V j 0 9 2 & & # & & # & & , , 9 y j V L ] ;.g.C.D . . . . . . . . . . . . . . . . ",
". . . . . . . . . . . . . . . . 2 C.(.N.y.../ G c j 0 9 2 3 > & & & 3 , 2 2 y j z L W &.y.N.p.2 . . . . . . . . . . . . . . . . ",
". . . . . . . . . . . . . . . . . W .XJ.g.,.] W D j j y 0 2 3 > 2 2 2 2 0 0 j z G W ..3.u.H.W . . . . . . . . . . . . . . . . . ",
"  . . . . . . . . . . . . . . . . & (.(.C.i.;.] W D z j 0 s q q 2 9 9 0 s j z V W ] &.p.N.H.& . . . . . . . . . . . . . . . .   ",
"  . . . . . . . . . . . . . . . . . j H.H.N.y.&.] / G V v j j i j s j z c V G W ] &.y.N.V.j . . . . . . . . . . . . . . . . .   ",
"  . . . . . . . . . . . . . . . . . . W (.!.N.y.;.] / L G V V V v V c D L L / ] &.y.N.H.W . . . . . . . . . . . . . . . . . .   ",
"  . . . . . . . . . . . . . . . . . . & 7.(.C.N.y.&.&.../ W L G G G L W W ] &.&.y.N.H.&.& . . . . . . . . . . . . . . . . . .   ",
"    . . . . . . . . . . . . . . . . . . & T H.H.N.g.y.;.&.] ..] _ ] ....&.;.y.g.C.C.D & . . . . . . . . . . . . . . . . . .     ",
"    . . . . . . . . . . . . . . . . . . . . z C.(.H.g.i.y.y.3.&.5.5.3.3.y.N.N.H.C.s . . . . . . . . . . . . . . . . . . . .     ",
"      . . . . . . . . . . . . . . . . . . . . & _ N.H.H.C.N.N.g.g.g.N.N.N.C.g.W & . . . . . . . . . . . . . . . . . . . .       ",
"      . . . . . . . . . . . . . . . . . . . . . . & s W C.V.C.N.N.N.N.N.W y & . . . . . . . . . . . . . . . . . . . . . .       ",
"        . . . . . . . . . . . . . . . . . . . . . . . . . . . . . . . . . . . . . . . . . . . . . . . . . . . . . . . .         ",
"        . . . . . . . . . . . . . . . . . . . . . . . . . . . . . . . . . . . . . . . . . . . . . . . . . . . . . . . .         ",
"          . . . . . . . . . . . . . . . . . . . . . . . . . . . . . . . . . . . . . . . . . . . . . . . . . . . . . .           ",
"            . . . . . . . . . . . . . . . . . . . . . . . . . . . . . . . . . . . . . . . . . . . . . . . . . . . .             ",
"              . . . . . . . . . . . . . . . . . . . . . . . . . . . . . . . . . . . . . . . . . . . . . . . . . .               ",
"              . . . . . . . . . . . . . . . . . . . . . . . . . . . . . . . . . . . . . . . . . . . . . . . . . .               ",
"                . . . . . . . . . . . . . . . . . . . . . . . . . . . . . . . . . . . . . . . . . . . . . . . .                 ",
"                  . . . . . . . . . . . . . . . . . . . . . . . . . . . . . . . . . . . . . . . . . . . . . .                   ",
"                    . . . . . . . . . . . . . . . . . . . . . . . . . . . . . . . . . . . . . . . . . . . .                     ",
"                        . . . . . . . . . . . . . . . . . . . . . . . . . . . . . . . . . . . . . . . .                         ",
"                          . . . . . . . . . . . . . . . . . . . . . . . . . . . . . . . . . . . . . .                           ",
"                            . . . . . . . . . . . . . . . . . . . . . . . . . . . . . . . . . . . .                             ",
"                                . . . . . . . . . . . . . . . . . . . . . . . . . . . . . . . .                                 ",
"                                    . . . . . . . . . . . . . . . . . . . . . . . . . . . .                                     ",
"                                          . . . . . . . . . . . . . . . . . . . . . .                                           ",
"                                                . . . . . . . . . . . . . . . .                                                 "
};
