/* XPM */
static char *portail51651103201[] = {
/* columns rows colors chars-per-pixel */
"64 64 20 1 ",
"  c None",
". c #8B1CBE",
"X c #8E1EC1",
"o c #901FC3",
"O c #9221C5",
"+ c #9524CA",
"@ c #9926CE",
"# c #9D29D2",
"$ c #A12CD6",
"% c #A32EDA",
"& c #A630DD",
"* c #A831DF",
"= c #AC34E3",
"- c #AF37E8",
"; c #B037E7",
": c #B137E8",
"> c #B43AEC",
", c #B83DEF",
"< c #B73CF0",
"1 c #B93DF2",
/* pixels */
"                        111>,>,>>,><<<,<                        ",
"                     11<>><>>>>>>>:>>>>>,>1                     ",
"                  <11,>>>::>;:;;:;:;::>>>>>,,1                  ",
"                11<>>:>::::;-;------:::::>>>>><1                ",
"              11>,>>:--=;;-========--==-;-;::>>><1              ",
"             1<<>>>::--===*==***%**=*=*===-=::>>>,1             ",
"            1<>,::-=--==***&&&&&%**%&***====---;:,><            ",
"          1<<>>:---====&&&&&%%&$%%%%%%*%%**=*=--::>,<1          ",
"         11,>>::====%%=%%%%%%%%#$$%$$$%%%%**===--:::><<         ",
"        11<<>::-=====%%%%%##########$$$$$%%%%=&==;::>>,<        ",
"       11<>>:--==&%=%%%%########@######$$$%$%%*===--:>>,1       ",
"       1<>>::===&=%%######@##+@#@@@@@@@###$$$%%%**--::>>,       ",
"      11>>:;-=*&%%%%######@+@@++@@@@+@@@@###$$$%&*==-;;>,1      ",
"     111>>:====%=%####@#@+@++++++++++++@@@@##$$%%&&==-;>>>1     ",
"    11<,>:-==*%%%####@@@+++++OOOo+O++++++@@@@##%%%%**=-:>><1    ",
"    11>>:;-=&*%%#####@+++++O+OOOOOOOO+O+++@@@###$%%**=-::>>1    ",
"   11<>:;-=**%$$$@@@@+++O+OOOOOOOOXOOOOOO+O@@@@##$%%*===-:,,<   ",
"   11>>:-=**%%$$$@@@+++OOOOXoXoXXXoOoXOOOO+@@@@@#$$%%*==-:>,<   ",
"  11,>>:-*=&%%$#@@@@++oOOXXXXXXXXXXXXXXXOO+OO@@@##$$%&&=--;:<1  ",
"  11,,:-==&&%$##@@@+OO+oOXXXXXXXXXXXXXXXOOOOO++@@##$%%&==-:,>1  ",
" 111>>--=*%%$$##@@++OOOoXXX.....XXXXX.XXXoOO+++@@###$%&==-:>>11 ",
" 11>>:--=*%%$##@@++OOOooXXXX....X....XXXXoXOOOO@+@##$%%**-;:>11 ",
" 1<,>;-==%%%$#@@++OOOooX.............XXXXXXOOOO++@##$$&&*=-;>>< ",
" 11>:;-*=%%$#@@@++OOOoo...............XXXXXXoo+O+@@##$%&*=-:>>1 ",
"111>>;-***%$#@@@++ooXoXX.................XXXXXO+o@@##$%%&=--:>,1",
"111>:-==%%$$##@++OOOoXXX.X...............XXXXXO+++@@#$%%%==;>>,1",
"11>>:-==*%$$#@@++OOoXXXX................X.XXXooO++@@#$$%&&-=:>>1",
"1<1>:-=**%$##@+++OOXXX..X..................XoooO++@@##$%&==-:>,<",
"11>>::=*%%$##@@+OOoXXX...................X.Xooooo+@@##$%***-:><<",
"11<::--%*%$$@@+++OOXXXX...................X.ooo+++@@##$%&**-:><1",
"1<,>:-==%%$##@++OOoOXXXX.................XXXXoo+o@@@@#$%%=*-:>><",
"11>>:-=%*%$##@@++OoXX....................XXXXooo+o+@#$$$&*--::<1",
"1<>>;=-*&&&##@@+OOOoXXXX...................XXXOO++@@##%&&==-->><",
"1<,>>;=*&&###@@++OOXXX...................XXXXXOOO+@@###&&&==-><1",
"11,>:;=*&&&##@+++OOXXXX.................X.XXXXOO++@@###%&==--<<<",
"1,,>>-=*&$####@@+OOOXXXX................XXXXXXOO++@@##&%&==--><<",
"111<::-=&&$###@++OOOXXXX................XXXXOOOO++@@##%&&=--<<<1",
"11<,>;-*=&&$##@@++OOOXXX................XXXXXOO++@@##%%&&=---<11",
"11<<>:;=*&&#$#@@+++OOoXXXX..............XXXXOOO++@####&&*=--><<1",
"11<<,:;=*&&&###@@+++OXXXXX.XX..X........XXOOO+++@@##%&&&=---<<11",
" 111<::-=*&$$$##@+++OOOOXXXXXXXX....XXXXXOOO+O+@@###$%&&==-:,<1 ",
" 111<,:-==*&%$##@@+++OOOoXoXXXXX....XXXXOOOO+++@###$$&&==->:,<1 ",
" 111<:::-**&%$$##@@++OOOOOoXXXXXXX..XXXOOOO+++@@###%&&*==;>,,11 ",
" 1111,>>-==*&$$$#@@@+++OOoOOXXooXXXXX+XXO+O++@@###$$&**=-::,111 ",
"  111,,::-=*&%%$###@@++++OOOoOOoXXXOOOO+O++@@@###$$&&==-::,<11  ",
"  111<,>:;==*&%%$###@@@++++OOOOOOOOOO++++++@@@##$%&&&==->:,<11  ",
"   11,,>>;-==*&%%$###@@@+++++OO++O+++++++@@@####$%&&==-->>111   ",
"   111<<>;--==*&%%$###@@@@@+++++++++++++@@@####&&&&==-->>,111   ",
"    111111::-==&%%%%#$##@@@+@@+@@@+@@@@@@####$$&&**=--:>,111    ",
"    11111,>---==*&%%$$$#####@@@@@@@@@#@###$$&$&&*==-::>>>111    ",
"     1111,>>:-===**%%%%$########@#######$$$%%&&*===;:><1111     ",
"      1111,<>:--==**&%%%%%$#######$###%#$%%&&&*==;;:><<111      ",
"       1111,,:>---===%&%%%%%$$$$$#$$#%%%%&&&*===-;:>><111       ",
"       11111<>,::-=====%=%%%%%%%&%&&&&&&&***===-;:>><<111       ",
"        1111,<,>>:--=====%&&&&%&&&&&******==--::>>><1111        ",
"         11111<>>>::----=====*=&***&**==-=-;::>>,,11111         ",
"          111111111>:::--;=-===========;-::::,>>111111          ",
"            11111111>,>:;:;:--------=-;;:::,>,<11111            ",
"             1111111<>,>>>>:;;>--::;:>:,,,11,<11111             ",
"              11111111,,>>>>>:>>::>,>>>>1111<11111              ",
"                1111111111<,11,>>,11<,<<11111111                ",
"                  11111111<111<111111111111111                  ",
"                     1111111111111111111111                     ",
"                        1111111111111111                        "
};
